# xmcd CD Database Entry
#
# Track frame offsets:
# 150
# 16971
# 42699
# 54532
# 85187
# 115503
# 138004
# 171553
# 178445
#
# Disc length: 2677 seconds
#
# Revision: 4
# Processed by: cddbd v1.5.2PL0 Copyright (c) Steve Scherf et al.
# Submitted via: tcd 2.0b
#
DISCID=790a7309
DTITLE=GOF
DYEAR=1900
DGENRE=
TTITLE0=Glove on Fight
TTITLE1=remix1 Dunk!
TTITLE2=トラック 3
TTITLE3=トラック 4
TTITLE4=トラック 5
TTITLE5=Dunk! Full Version
TTITLE6=トラック 7
TTITLE7=トラック 8
TTITLE8=トラック 9
EXTD=
EXTT0=
EXTT1=
EXTT2=
EXTT3=
EXTT4=
EXTT5=
EXTT6=
EXTT7=
EXTT8=
PLAYORDER=
